<svg width="18" height="15" viewBox="0 0 18 15" fill="none" xmlns="http://www.w3.org/2000/svg">
<path fill-rule="evenodd" clip-rule="evenodd" d="M5.45319 0.173671C6.41766 -0.0452652 7.41757 -0.0573422 8.38704 0.138236C9.35652 0.333813 10.2735 0.732606 11.0777 1.30834C11.8819 1.88407 12.5549 2.62367 13.0524 3.4784C13.55 4.33313 13.8608 5.2836 13.9643 6.26717C13.9825 6.44029 13.9312 6.61356 13.8217 6.74885C13.7122 6.88415 13.5534 6.97039 13.3803 6.98861C13.2071 7.00683 13.0339 6.95552 12.8986 6.84599C12.7633 6.73646 12.677 6.57767 12.6588 6.40455C12.5463 5.33584 12.1334 4.32087 11.4678 3.4772C10.8022 2.63353 9.91123 1.99568 8.89806 1.63754C7.88489 1.2794 6.79099 1.21562 5.74306 1.4536C4.69513 1.69157 3.73607 2.22155 2.97695 2.98216C2.21783 3.74277 1.68973 4.70287 1.45381 5.75126C1.2179 6.79965 1.28382 7.89343 1.64394 8.9059C2.00407 9.91837 2.64366 10.8081 3.48864 11.472C4.33361 12.1359 5.34939 12.5469 6.41832 12.6573C6.50467 12.6653 6.58857 12.6904 6.66516 12.7311C6.74176 12.7718 6.80954 12.8272 6.86457 12.8943C6.91961 12.9613 6.96081 13.0386 6.98581 13.1216C7.0108 13.2046 7.01908 13.2918 7.01018 13.3781C7.00127 13.4644 6.97536 13.548 6.93393 13.6242C6.8925 13.7004 6.83638 13.7676 6.76882 13.822C6.70125 13.8764 6.62358 13.9168 6.54029 13.941C6.457 13.9651 6.36974 13.9726 6.28357 13.9628C4.63237 13.7929 3.09527 13.0418 1.94663 11.8435C0.797995 10.6452 0.112567 9.07765 0.0126899 7.42075C-0.0871871 5.76384 0.404987 4.12535 1.40137 2.79774C2.39774 1.47014 3.83348 0.539801 5.45232 0.172796L5.45319 0.173671ZM7.00282 2.62455C7.17686 2.62455 7.34378 2.69369 7.46685 2.81676C7.58992 2.93983 7.65907 3.10675 7.65907 3.2808V7.87455H4.15907C3.98502 7.87455 3.8181 7.80541 3.69503 7.68233C3.57196 7.55926 3.50282 7.39234 3.50282 7.2183C3.50282 7.04425 3.57196 6.87733 3.69503 6.75426C3.8181 6.63119 3.98502 6.56205 4.15907 6.56205H6.34657V3.2808C6.34657 3.10675 6.41571 2.93983 6.53878 2.81676C6.66185 2.69369 6.82877 2.62455 7.00282 2.62455Z" fill="white"/>
<path d="M9.87793 10.4995L11.7529 12.3745L15.5029 8.62451" stroke="#3A9D62" stroke-linecap="round" stroke-linejoin="round"/>
</svg>
