<svg width="22" height="21" viewBox="0 0 22 21" fill="none" xmlns="http://www.w3.org/2000/svg">
<path d="M10.1611 0.526248C10.2948 0.48745 10.4378 0.491056 10.5692 0.536532C10.7005 0.582007 10.8132 0.666936 10.8904 0.778748L13.1303 4.00875L16.4895 1.855C16.5986 1.78526 16.7271 1.74886 16.8582 1.75058C16.9892 1.7523 17.1166 1.79206 17.2237 1.86464C17.3308 1.93722 17.4126 2.03923 17.4584 2.1573C17.5041 2.27536 17.5117 2.40397 17.4801 2.52625L16.3816 6.75H20.7496C20.8783 6.74978 21.0042 6.78631 21.1113 6.85497C21.2184 6.92363 21.3019 7.02133 21.3512 7.13567C21.4005 7.25001 21.4134 7.37585 21.3882 7.49724C21.363 7.61862 21.3009 7.73009 21.2098 7.8175L17.8688 11.0275L21.1097 13.105C21.2257 13.1794 21.3138 13.2877 21.3609 13.4139C21.408 13.5401 21.4116 13.6776 21.3713 13.8059C21.3309 13.9343 21.2487 14.0467 21.1367 14.1267C21.0248 14.2067 20.8891 14.2499 20.7496 14.25H16.8496C16.6772 14.25 16.5119 14.1841 16.39 14.0669C16.2681 13.9497 16.1996 13.7908 16.1996 13.625C16.1996 13.4592 16.2681 13.3003 16.39 13.1831C16.5119 13.0658 16.6772 13 16.8496 13H18.6033L16.4895 11.645C16.4093 11.5938 16.342 11.5261 16.2923 11.4468C16.2426 11.3675 16.2119 11.2786 16.2023 11.1865C16.1928 11.0945 16.2046 11.0015 16.2369 10.9143C16.2693 10.8271 16.3214 10.748 16.3894 10.6825L19.1805 8H15.5496C15.4509 7.99997 15.3534 7.97832 15.2647 7.93668C15.176 7.89504 15.0983 7.83452 15.0375 7.7597C14.9767 7.68488 14.9345 7.59773 14.914 7.50486C14.8935 7.412 14.8952 7.31586 14.9191 7.22375L15.8109 3.79125L13.3097 5.395C13.1663 5.48676 12.9908 5.52 12.8219 5.48742C12.6529 5.45484 12.5044 5.3591 12.4088 5.22125L10.9996 3.18875V4.875C10.9996 5.04076 10.9311 5.19973 10.8092 5.31694C10.6873 5.43415 10.522 5.5 10.3496 5.5C10.1772 5.5 10.0119 5.43415 9.88999 5.31694C9.76809 5.19973 9.69961 5.04076 9.69961 4.875V1.125C9.69947 0.990778 9.74428 0.860081 9.82739 0.752247C9.91051 0.644414 10.0275 0.565172 10.1611 0.526248ZM4.17461 16.125C4.43319 16.125 4.68119 16.0262 4.86404 15.8504C5.04689 15.6746 5.14961 15.4361 5.14961 15.1875C5.14961 14.9389 5.04689 14.7004 4.86404 14.5246C4.68119 14.3488 4.43319 14.25 4.17461 14.25C3.91602 14.25 3.66803 14.3488 3.48518 14.5246C3.30233 14.7004 3.19961 14.9389 3.19961 15.1875C3.19961 15.4361 3.30233 15.6746 3.48518 15.8504C3.66803 16.0262 3.91602 16.125 4.17461 16.125ZM12.2996 15.1875C12.2996 15.4361 12.1969 15.6746 12.014 15.8504C11.8312 16.0262 11.5832 16.125 11.3246 16.125C11.066 16.125 10.818 16.0262 10.6352 15.8504C10.4523 15.6746 10.3496 15.4361 10.3496 15.1875C10.3496 14.9389 10.4523 14.7004 10.6352 14.5246C10.818 14.3488 11.066 14.25 11.3246 14.25C11.5832 14.25 11.8312 14.3488 12.014 14.5246C12.1969 14.7004 12.2996 14.9389 12.2996 15.1875ZM13.5996 11.75C14.3887 12.32 14.8996 13.2275 14.8996 14.25V19.25C14.8996 19.5815 14.7626 19.8995 14.5188 20.1339C14.275 20.3683 13.9444 20.5 13.5996 20.5C13.2548 20.5 12.9242 20.3683 12.6804 20.1339C12.4366 19.8995 12.2996 19.5815 12.2996 19.25V18.625H3.19961V19.25C3.19961 19.5815 3.06265 19.8995 2.81885 20.1339C2.57505 20.3683 2.24439 20.5 1.89961 20.5C1.55483 20.5 1.22417 20.3683 0.98037 20.1339C0.736573 19.8995 0.599609 19.5815 0.599609 19.25V14.25C0.599609 13.2275 1.11051 12.32 1.89961 11.75H1.24961C1.07722 11.75 0.911889 11.6841 0.78999 11.5669C0.668091 11.4497 0.599609 11.2908 0.599609 11.125C0.599609 10.9592 0.668091 10.8003 0.78999 10.6831C0.911889 10.5658 1.07722 10.5 1.24961 10.5H2.10761L2.28701 9.46375C2.38822 8.88022 2.70135 8.35012 3.17074 7.96767C3.64013 7.58522 4.23536 7.37522 4.85061 7.375H10.646C11.2615 7.37493 11.857 7.58479 12.3267 7.96727C12.7963 8.34974 13.1097 8.88001 13.2109 9.46375L13.3903 10.5H14.2483C14.4207 10.5 14.586 10.5658 14.7079 10.6831C14.8298 10.8003 14.8983 10.9592 14.8983 11.125C14.8983 11.2908 14.8298 11.4497 14.7079 11.5669C14.586 11.6841 14.4207 11.75 14.2483 11.75H13.5996ZM4.85061 8.625C4.54289 8.62513 4.2452 8.73022 4.01049 8.92157C3.77578 9.11292 3.61927 9.37812 3.56881 9.67L3.30881 11.1675C3.48561 11.14 3.66501 11.125 3.84961 11.125H11.6496C11.8342 11.125 12.0136 11.14 12.1891 11.1675L11.9291 9.67C11.8787 9.37833 11.7224 9.1133 11.4879 8.92198C11.2535 8.73065 10.9561 8.62543 10.6486 8.625H4.85061ZM1.89961 14.25V17.375H13.5996V14.25C13.5996 13.7527 13.3942 13.2758 13.0285 12.9242C12.6628 12.5725 12.1668 12.375 11.6496 12.375H3.84961C3.33244 12.375 2.83645 12.5725 2.47075 12.9242C2.10506 13.2758 1.89961 13.7527 1.89961 14.25Z" fill="black"/>
</svg>
