<svg width="22" height="21" viewBox="0 0 22 21" fill="none" xmlns="http://www.w3.org/2000/svg">
<path d="M10.1615 0.526248C10.2951 0.48745 10.4382 0.491056 10.5696 0.536532C10.7009 0.582007 10.8135 0.666936 10.8908 0.778748L13.1307 4.00875L16.4899 1.855C16.599 1.78526 16.7275 1.74886 16.8585 1.75058C16.9896 1.7523 17.117 1.79206 17.2241 1.86464C17.3312 1.93722 17.413 2.03923 17.4587 2.1573C17.5045 2.27536 17.5121 2.40397 17.4805 2.52625L16.382 6.75H20.75C20.8787 6.74978 21.0046 6.78631 21.1117 6.85497C21.2188 6.92363 21.3023 7.02133 21.3516 7.13567C21.4009 7.25001 21.4138 7.37585 21.3886 7.49724C21.3634 7.61862 21.3013 7.73009 21.2102 7.8175L17.8692 11.0275L21.1101 13.105C21.2261 13.1794 21.3142 13.2877 21.3613 13.4139C21.4084 13.5401 21.412 13.6776 21.3716 13.8059C21.3313 13.9343 21.249 14.0467 21.1371 14.1267C21.0252 14.2067 20.8894 14.2499 20.75 14.25H16.85C16.6776 14.25 16.5123 14.1841 16.3904 14.0669C16.2685 13.9497 16.2 13.7908 16.2 13.625C16.2 13.4592 16.2685 13.3003 16.3904 13.1831C16.5123 13.0658 16.6776 13 16.85 13H18.6037L16.4899 11.645C16.4097 11.5938 16.3423 11.5261 16.2927 11.4468C16.243 11.3675 16.2123 11.2786 16.2027 11.1865C16.1931 11.0945 16.2049 11.0015 16.2373 10.9143C16.2696 10.8271 16.3217 10.748 16.3898 10.6825L19.1809 8H15.55C15.4512 7.99997 15.3538 7.97832 15.2651 7.93668C15.1763 7.89504 15.0986 7.83452 15.0379 7.7597C14.9771 7.68488 14.9349 7.59773 14.9143 7.50486C14.8938 7.412 14.8956 7.31586 14.9195 7.22375L15.8113 3.79125L13.3101 5.395C13.1666 5.48676 12.9912 5.52 12.8222 5.48742C12.6533 5.45484 12.5047 5.3591 12.4092 5.22125L11 3.18875V4.875C11 5.04076 10.9315 5.19973 10.8096 5.31694C10.6877 5.43415 10.5224 5.5 10.35 5.5C10.1776 5.5 10.0123 5.43415 9.89035 5.31694C9.76846 5.19973 9.69997 5.04076 9.69997 4.875V1.125C9.69984 0.990778 9.74464 0.860081 9.82776 0.752247C9.91087 0.644414 10.0279 0.565172 10.1615 0.526248ZM4.17498 16.125C4.43356 16.125 4.68156 16.0262 4.8644 15.8504C5.04725 15.6746 5.14997 15.4361 5.14997 15.1875C5.14997 14.9389 5.04725 14.7004 4.8644 14.5246C4.68156 14.3488 4.43356 14.25 4.17498 14.25C3.91639 14.25 3.66839 14.3488 3.48555 14.5246C3.3027 14.7004 3.19998 14.9389 3.19998 15.1875C3.19998 15.4361 3.3027 15.6746 3.48555 15.8504C3.66839 16.0262 3.91639 16.125 4.17498 16.125ZM12.3 15.1875C12.3 15.4361 12.1973 15.6746 12.0144 15.8504C11.8316 16.0262 11.5836 16.125 11.325 16.125C11.0664 16.125 10.8184 16.0262 10.6355 15.8504C10.4527 15.6746 10.35 15.4361 10.35 15.1875C10.35 14.9389 10.4527 14.7004 10.6355 14.5246C10.8184 14.3488 11.0664 14.25 11.325 14.25C11.5836 14.25 11.8316 14.3488 12.0144 14.5246C12.1973 14.7004 12.3 14.9389 12.3 15.1875ZM13.6 11.75C14.3891 12.32 14.9 13.2275 14.9 14.25V19.25C14.9 19.5815 14.763 19.8995 14.5192 20.1339C14.2754 20.3683 13.9448 20.5 13.6 20.5C13.2552 20.5 12.9245 20.3683 12.6807 20.1339C12.4369 19.8995 12.3 19.5815 12.3 19.25V18.625H3.19998V19.25C3.19998 19.5815 3.06301 19.8995 2.81921 20.1339C2.57542 20.3683 2.24476 20.5 1.89998 20.5C1.55519 20.5 1.22453 20.3683 0.980737 20.1339C0.736939 19.8995 0.599976 19.5815 0.599976 19.25V14.25C0.599976 13.2275 1.11088 12.32 1.89998 11.75H1.24998C1.07758 11.75 0.912255 11.6841 0.790356 11.5669C0.668458 11.4497 0.599976 11.2908 0.599976 11.125C0.599976 10.9592 0.668458 10.8003 0.790356 10.6831C0.912255 10.5658 1.07758 10.5 1.24998 10.5H2.10798L2.28738 9.46375C2.38858 8.88022 2.70172 8.35012 3.17111 7.96767C3.6405 7.58522 4.23573 7.37522 4.85098 7.375H10.6464C11.2618 7.37493 11.8574 7.58479 12.327 7.96727C12.7967 8.34974 13.11 8.88001 13.2113 9.46375L13.3907 10.5H14.2487C14.4211 10.5 14.5864 10.5658 14.7083 10.6831C14.8302 10.8003 14.8987 10.9592 14.8987 11.125C14.8987 11.2908 14.8302 11.4497 14.7083 11.5669C14.5864 11.6841 14.4211 11.75 14.2487 11.75H13.6ZM4.85098 8.625C4.54326 8.62513 4.24557 8.73022 4.01086 8.92157C3.77615 9.11292 3.61964 9.37812 3.56918 9.67L3.30918 11.1675C3.48598 11.14 3.66538 11.125 3.84998 11.125H11.65C11.8346 11.125 12.014 11.14 12.1895 11.1675L11.9295 9.67C11.879 9.37833 11.7227 9.1133 11.4883 8.92198C11.2538 8.73065 10.9565 8.62543 10.649 8.625H4.85098ZM1.89998 14.25V17.375H13.6V14.25C13.6 13.7527 13.3945 13.2758 13.0288 12.9242C12.6631 12.5725 12.1671 12.375 11.65 12.375H3.84998C3.3328 12.375 2.83681 12.5725 2.47112 12.9242C2.10542 13.2758 1.89998 13.7527 1.89998 14.25Z" fill="white"/>
</svg>
