<svg width="16" height="15" viewBox="0 0 16 15" fill="none" xmlns="http://www.w3.org/2000/svg">
<path fill-rule="evenodd" clip-rule="evenodd" d="M5.45319 0.174159C6.41766 -0.0447769 7.41757 -0.0568539 8.38704 0.138724C9.35652 0.334302 10.2735 0.733094 11.0777 1.30883C11.8819 1.88456 12.5549 2.62415 13.0524 3.47889C13.55 4.33362 13.8608 5.28409 13.9643 6.26766C13.9825 6.44078 13.9312 6.61405 13.8217 6.74934C13.7122 6.88464 13.5534 6.97088 13.3803 6.9891C13.2071 7.00731 13.0339 6.95601 12.8986 6.84648C12.7633 6.73695 12.677 6.57815 12.6588 6.40503C12.5463 5.33633 12.1334 4.32136 11.4678 3.47769C10.8022 2.63402 9.91123 1.99617 8.89806 1.63803C7.88489 1.27989 6.79099 1.21611 5.74306 1.45408C4.69513 1.69206 3.73607 2.22204 2.97695 2.98265C2.21783 3.74325 1.68973 4.70336 1.45381 5.75175C1.2179 6.80014 1.28382 7.89392 1.64394 8.90639C2.00407 9.91886 2.64366 10.8086 3.48864 11.4725C4.33361 12.1364 5.34939 12.5474 6.41832 12.6578C6.50467 12.6658 6.58857 12.6909 6.66516 12.7316C6.74176 12.7723 6.80954 12.8277 6.86457 12.8947C6.91961 12.9618 6.96081 13.039 6.98581 13.1221C7.0108 13.2051 7.01908 13.2923 7.01018 13.3786C7.00127 13.4648 6.97536 13.5485 6.93393 13.6247C6.8925 13.7009 6.83638 13.7681 6.76882 13.8225C6.70125 13.8768 6.62358 13.9173 6.54029 13.9415C6.457 13.9656 6.36974 13.973 6.28357 13.9633C4.63237 13.7934 3.09527 13.0423 1.94663 11.844C0.797995 10.6456 0.112567 9.07814 0.0126899 7.42123C-0.0871871 5.76433 0.404987 4.12584 1.40137 2.79823C2.39774 1.47062 3.83348 0.540289 5.45232 0.173284L5.45319 0.174159ZM7.00282 2.62503C7.17686 2.62503 7.34378 2.69417 7.46685 2.81725C7.58992 2.94032 7.65907 3.10724 7.65907 3.28128V7.87503H4.15907C3.98502 7.87503 3.8181 7.80589 3.69503 7.68282C3.57196 7.55975 3.50282 7.39283 3.50282 7.21878C3.50282 7.04474 3.57196 6.87782 3.69503 6.75475C3.8181 6.63167 3.98502 6.56253 4.15907 6.56253H6.34657V3.28128C6.34657 3.10724 6.41571 2.94032 6.53878 2.81725C6.66185 2.69417 6.82877 2.62503 7.00282 2.62503Z" fill="white"/>
<path d="M9.86665 13.6667L9.33331 13.1333L11.4666 11L9.33331 8.86668L9.86665 8.33334L12 10.4667L14.1333 8.33334L14.6666 8.86668L12.5333 11L14.6666 13.1333L14.1333 13.6667L12 11.5333L9.86665 13.6667Z" fill="#BD4343"/>
</svg>
