<svg width="24" height="24" viewBox="0 0 24 24" fill="none" xmlns="http://www.w3.org/2000/svg">
<path d="M12.0003 21C13.2035 21.0001 14.3944 20.7589 15.5028 20.2908C16.6111 19.8226 17.6143 19.137 18.4531 18.2744C19.2919 17.4119 19.9492 16.3899 20.3862 15.2689C20.8232 14.1479 21.031 12.9507 20.9973 11.748C19.7387 12.6241 18.2271 13.0626 16.695 12.9961C15.1629 12.9297 13.695 12.3619 12.517 11.3801C11.3389 10.3983 10.5158 9.05685 10.1743 7.56183C9.83269 6.06681 9.99152 4.50099 10.6263 3.10501C8.38456 3.45048 6.35589 4.62968 4.94623 6.40668C3.53656 8.18368 2.84985 10.4274 3.0235 12.689C3.19715 14.9506 4.21834 17.0632 5.88277 18.6042C7.54719 20.1452 9.73209 21.0008 12.0003 21Z" stroke="black" stroke-width="1.5" stroke-linecap="round" stroke-linejoin="round"/>
</svg>
