<svg width="24" height="24" viewBox="0 0 24 24" fill="none" xmlns="http://www.w3.org/2000/svg">
<path d="M11.9998 21C13.203 21.0001 14.3939 20.7589 15.5023 20.2907C16.6106 19.8226 17.6138 19.137 18.4526 18.2744C19.2914 17.4118 19.9487 16.3899 20.3857 15.2689C20.8227 14.1479 21.0305 12.9507 20.9968 11.748C19.7382 12.6241 18.2266 13.0626 16.6945 12.9961C15.1624 12.9296 13.6946 12.3619 12.5165 11.3801C11.3384 10.3983 10.5153 9.05682 10.1738 7.5618C9.8322 6.06678 9.99103 4.50096 10.6258 3.10498C8.38407 3.45045 6.35541 4.62964 4.94574 6.40665C3.53607 8.18365 2.84936 10.4274 3.02301 12.689C3.19666 14.9506 4.21785 17.0632 5.88228 18.6042C7.5467 20.1451 9.73161 21.0008 11.9998 21Z" stroke="#F8F8F8" stroke-width="1.5" stroke-linecap="round" stroke-linejoin="round"/>
</svg>
